<svg xmlns:xlink="http://www.w3.org/1999/xlink" xmlns="http://www.w3.org/2000/svg" width="901" height="447"
     viewBox="0 0 901 447">
    <metadata><?xpacket begin="﻿" id="W5M0MpCehiHzreSzNTczkc9d"?>
        <x:xmpmeta xmlns:x="adobe:ns:meta/" x:xmptk="Adobe XMP Core 5.6-c138 79.159824, 2016/09/14-01:09:01        ">
            <rdf:RDF xmlns:rdf="http://www.w3.org/1999/02/22-rdf-syntax-ns#">
                <rdf:Description rdf:about=""/>
            </rdf:RDF>
        </x:xmpmeta>


        <?xpacket end="w"?>
    </metadata>
    <defs>
        <style>
            .cls-1 {
            fill: #ef774b;
            filter: url(#filter);
            }

            .cls-1, .cls-2 {
            fill-rule: evenodd;
            }

            .cls-2 {
            filter: url(#filter-2);
            }
        </style>
        <filter id="filter" x="0.844" y="0.063" width="899.625" height="438.563" filterUnits="userSpaceOnUse">
            <feFlood result="flood" flood-color="#fff"/>
            <feComposite result="composite" operator="in" in2="SourceGraphic"/>
            <feBlend result="blend" in2="SourceGraphic"/>
        </filter>
        <filter id="filter-2" x="104.531" y="372.688" width="458.688" height="73.531" filterUnits="userSpaceOnUse">
            <feFlood result="flood" flood-color="#fff"/>
            <feComposite result="composite" operator="in" in2="SourceGraphic"/>
            <feBlend result="blend" in2="SourceGraphic"/>
        </filter>
    </defs>
    <path id="php" class="cls-1"
          d="M70.524,92.922L0.856,438.616H73.685L92.713,344.2h64.133c44.023,0,73.718-9.8,101.663-32.506,27.3-22.186,45.494-53.144,52.773-89.261,9.67-47.984.852-85.133-25.552-107.835C266.878,97.566,247.161,92.922,197.7,92.922H70.524Zm62.015,53.66h50c44.567,0,64.473,25.282,55.322,70.687-9.878,49.016-39.766,73.266-89.768,73.266H103.527ZM452.851,0.049H380.022L310.666,344.2H383.5L423.32,146.582h58.7c41.849,0,50.327,11.867,40.61,54.692L493.825,344.2h72.829l31.61-156.852c12.743-68.623-12.726-95.969-89.671-94.421H434.134ZM655.885,92.922L586.217,438.616h72.829L678.075,344.2h64.133c44.023,0,73.717-9.8,101.663-32.506,27.3-22.186,45.494-53.144,52.773-89.261,9.67-47.984.852-85.133-25.553-107.835-18.852-17.027-38.569-21.671-88.027-21.671H655.885Zm62.015,53.66h50c44.567,0,64.472,25.282,55.322,70.687-9.878,49.016-39.766,73.266-89.768,73.266H688.889Z"/>
    <path id="hampshire" class="cls-2"
          d="M127.749,372.7H115.39l-10.859,57.7h12.36l6.235-33.132h9.961c7.1,0,8.572,1.99,7.037,9.17l-4.51,23.962h12.36l4.948-26.3c1.981-11.5-2.413-16.09-15.467-15.83H124.819Zm52.53,32.093c-4.8,0-8.459.346-10.618,1.038-5.089,1.557-9.137,6.4-10.211,12.111-0.831,4.412.482,8.218,3.488,10.381,2.441,1.73,4.682,2.076,14,2.076h26.01l4.46-23.7c1.33-6.574,1-10.207-1.47-13.754-3.049-3.893-6.282-4.844-16.829-4.671H168.262l-1.693,9h20.845c7.471,0,9.266,1.73,7.991,7.526H180.279Zm13.433,9-1.433,7.612h-14.3c-4.888,0-6.445-1.038-5.941-3.72a4.61,4.61,0,0,1,3.359-3.633c1.063-.259,1.063-0.259,4.015-0.259h14.3ZM222.4,388.271L214.476,430.4h12.359l6.235-33.132h13.282L240.117,430.4h12.359l6.235-33.132h6.549c5.7,0.087,7.232,2.249,5.848,8.132l-4.7,25h12.359l5.047-26.817c0.879-4.671.184-8.823-1.91-11.418-2.4-2.942-5.555-3.807-14.117-3.893H222.4Zm75.634,0-10.907,57.958H299.49l2.98-15.83h10.883c7.471,0,12.484-1.644,17.167-5.45a24.91,24.91,0,0,0,8.719-14.965c1.514-8.045-.081-14.274-4.622-18.08-3.244-2.855-6.6-3.633-15-3.633H298.038Zm10.667,9h8.485c7.563,0,11.008,4.239,9.576,11.852-1.547,8.217-6.555,12.283-15.04,12.283h-7.563Zm82.768-9H365.094c-5.349,0-8.23.6-10.645,2.162a15.79,15.79,0,0,0-6.793,10.122c-0.846,4.5.418,8.564,3.331,10.726,2.333,1.817,4.894,2.422,10.612,2.422h7.564c3.135,0,4.41.087,5.251,0.519a3.2,3.2,0,0,1,1.438,3.633,3.892,3.892,0,0,1-2.816,3.2,33.013,33.013,0,0,1-6.706.346H344.378l-1.693,9h25.549c5.442,0,8.643-.346,10.667-1.3,4.416-1.9,8.22-6.92,9.164-11.938,1.449-7.7-3.364-12.024-13.233-12.024h-7.286c-3.782,0-5.133-.173-5.865-0.692a3.023,3.023,0,0,1-1.378-3.46c0.57-3.028,1.991-3.72,7.525-3.72H389.78ZM418.386,372.7H406.027l-10.859,57.7h12.36l6.235-33.132h9.961c7.1,0,8.572,1.99,7.036,9.17L426.251,430.4H438.61l4.949-26.3c1.981-11.5-2.414-16.09-15.467-15.83H415.456Zm39.775,15.571L450.233,430.4h12.359l7.928-42.128H458.161Zm0.814-4.325h12.359L473.45,372.7H461.091Zm23.72,4.325L474.767,430.4h12.359l6.235-33.132h3.6c6.087,0,7.514,1.73,6.467,7.786L503,407.3h11.9l0.781-4.152c2.393-11.246-1.318-15.052-14.632-14.879H482.7Zm77.411,16.522H534.1c1.536-5.709,4.184-7.526,11.009-7.526h16.418l1.693-9h-17.34c-6.088,0-10.309.865-14.129,3.028-5.984,3.373-10.666,10.121-12.05,17.473-1.465,7.786.162,13.841,4.795,17.647,3.5,2.942,7.276,3.98,14.378,3.98h16.418l1.693-9H541.854c-7.227.173-10.107-2.162-9.451-7.612h26.01Z"/>
</svg>
